<svg xmlns="http://www.w3.org/2000/svg" xmlns:xlink="http://www.w3.org/1999/xlink" width="500" zoomAndPan="magnify" viewBox="0 0 375 374.999991" height="500" preserveAspectRatio="xMidYMid meet" version="1.0"><defs><g/><clipPath id="id1"><path d="M 181.804688 134.277344 L 205 134.277344 L 205 157.527344 L 181.804688 157.527344 Z M 181.804688 134.277344 " clip-rule="nonzero"/></clipPath><clipPath id="id2"><path d="M 204.988281 145.902344 C 204.988281 146.664062 204.914062 147.414062 204.765625 148.160156 C 204.617188 148.902344 204.398438 149.625 204.109375 150.328125 C 203.820312 151.027344 203.460938 151.695312 203.039062 152.328125 C 202.621094 152.957031 202.140625 153.542969 201.601562 154.078125 C 201.066406 154.613281 200.484375 155.09375 199.851562 155.515625 C 199.21875 155.9375 198.554688 156.292969 197.851562 156.585938 C 197.152344 156.875 196.429688 157.09375 195.683594 157.242188 C 194.941406 157.390625 194.1875 157.464844 193.429688 157.464844 C 192.671875 157.464844 191.917969 157.390625 191.175781 157.242188 C 190.429688 157.09375 189.707031 156.875 189.003906 156.585938 C 188.304688 156.292969 187.636719 155.9375 187.007812 155.515625 C 186.375 155.09375 185.792969 154.613281 185.253906 154.078125 C 184.71875 153.542969 184.238281 152.957031 183.816406 152.328125 C 183.394531 151.695312 183.039062 151.027344 182.75 150.328125 C 182.457031 149.625 182.238281 148.902344 182.089844 148.160156 C 181.941406 147.414062 181.871094 146.664062 181.871094 145.902344 C 181.871094 145.144531 181.941406 144.394531 182.089844 143.648438 C 182.238281 142.90625 182.457031 142.183594 182.75 141.480469 C 183.039062 140.777344 183.394531 140.113281 183.816406 139.480469 C 184.238281 138.851562 184.71875 138.265625 185.253906 137.730469 C 185.792969 137.195312 186.375 136.714844 187.007812 136.292969 C 187.636719 135.871094 188.304688 135.515625 189.003906 135.222656 C 189.707031 134.933594 190.429688 134.714844 191.175781 134.566406 C 191.917969 134.417969 192.671875 134.34375 193.429688 134.34375 C 194.1875 134.34375 194.941406 134.417969 195.683594 134.566406 C 196.429688 134.714844 197.152344 134.933594 197.851562 135.222656 C 198.554688 135.515625 199.21875 135.871094 199.851562 136.292969 C 200.484375 136.714844 201.066406 137.195312 201.601562 137.730469 C 202.140625 138.265625 202.621094 138.851562 203.039062 139.480469 C 203.460938 140.113281 203.820312 140.777344 204.109375 141.480469 C 204.398438 142.183594 204.617188 142.90625 204.765625 143.648438 C 204.914062 144.394531 204.988281 145.144531 204.988281 145.902344 Z M 204.988281 145.902344 " clip-rule="nonzero"/></clipPath><linearGradient x1="48.842116" gradientTransform="matrix(0.0465, 0, 0, 0.0465, 181.80415, 134.279217)" y1="-32.394393" x2="451.157626" gradientUnits="userSpaceOnUse" y2="532.394575" id="id3"><stop stop-opacity="1" stop-color="rgb(38.798523%, 42.399597%, 66.299438%)" offset="0"/><stop stop-opacity="1" stop-color="rgb(38.642883%, 42.250061%, 66.137695%)" offset="0.0625"/><stop stop-opacity="1" stop-color="rgb(38.365173%, 41.981506%, 65.85083%)" offset="0.0703125"/><stop stop-opacity="1" stop-color="rgb(38.119507%, 41.746521%, 65.597534%)" offset="0.078125"/><stop stop-opacity="1" stop-color="rgb(37.87384%, 41.51001%, 65.344238%)" offset="0.0859375"/><stop stop-opacity="1" stop-color="rgb(37.628174%, 41.275024%, 65.090942%)" offset="0.09375"/><stop stop-opacity="1" stop-color="rgb(37.382507%, 41.040039%, 64.837646%)" offset="0.101563"/><stop stop-opacity="1" stop-color="rgb(37.138367%, 40.803528%, 64.584351%)" offset="0.109375"/><stop stop-opacity="1" stop-color="rgb(36.8927%, 40.568542%, 64.331055%)" offset="0.117188"/><stop stop-opacity="1" stop-color="rgb(36.647034%, 40.332031%, 64.077759%)" offset="0.125"/><stop stop-opacity="1" stop-color="rgb(36.401367%, 40.097046%, 63.824463%)" offset="0.132812"/><stop stop-opacity="1" stop-color="rgb(36.157227%, 39.862061%, 63.571167%)" offset="0.140625"/><stop stop-opacity="1" stop-color="rgb(35.91156%, 39.625549%, 63.317871%)" offset="0.148438"/><stop stop-opacity="1" stop-color="rgb(35.665894%, 39.390564%, 63.064575%)" offset="0.15625"/><stop stop-opacity="1" stop-color="rgb(35.420227%, 39.154053%, 62.811279%)" offset="0.164063"/><stop stop-opacity="1" stop-color="rgb(35.174561%, 38.919067%, 62.557983%)" offset="0.171875"/><stop stop-opacity="1" stop-color="rgb(34.93042%, 38.682556%, 62.304688%)" offset="0.179688"/><stop stop-opacity="1" stop-color="rgb(34.684753%, 38.447571%, 62.051392%)" offset="0.1875"/><stop stop-opacity="1" stop-color="rgb(34.439087%, 38.212585%, 61.798096%)" offset="0.195312"/><stop stop-opacity="1" stop-color="rgb(34.19342%, 37.976074%, 61.5448%)" offset="0.203125"/><stop stop-opacity="1" stop-color="rgb(33.94928%, 37.741089%, 61.291504%)" offset="0.210938"/><stop stop-opacity="1" stop-color="rgb(33.703613%, 37.504578%, 61.038208%)" offset="0.21875"/><stop stop-opacity="1" stop-color="rgb(33.457947%, 37.269592%, 60.786438%)" offset="0.226563"/><stop stop-opacity="1" stop-color="rgb(33.21228%, 37.034607%, 60.533142%)" offset="0.234375"/><stop stop-opacity="1" stop-color="rgb(32.966614%, 36.798096%, 60.279846%)" offset="0.242188"/><stop stop-opacity="1" stop-color="rgb(32.722473%, 36.56311%, 60.02655%)" offset="0.25"/><stop stop-opacity="1" stop-color="rgb(32.476807%, 36.326599%, 59.773254%)" offset="0.257813"/><stop stop-opacity="1" stop-color="rgb(32.23114%, 36.091614%, 59.519958%)" offset="0.265625"/><stop stop-opacity="1" stop-color="rgb(31.985474%, 35.856628%, 59.266663%)" offset="0.273437"/><stop stop-opacity="1" stop-color="rgb(31.741333%, 35.620117%, 59.013367%)" offset="0.28125"/><stop stop-opacity="1" stop-color="rgb(31.495667%, 35.385132%, 58.760071%)" offset="0.289062"/><stop stop-opacity="1" stop-color="rgb(31.25%, 35.148621%, 58.506775%)" offset="0.296875"/><stop stop-opacity="1" stop-color="rgb(31.004333%, 34.913635%, 58.253479%)" offset="0.304688"/><stop stop-opacity="1" stop-color="rgb(30.760193%, 34.677124%, 58.000183%)" offset="0.3125"/><stop stop-opacity="1" stop-color="rgb(30.514526%, 34.442139%, 57.746887%)" offset="0.320312"/><stop stop-opacity="1" stop-color="rgb(30.26886%, 34.207153%, 57.493591%)" offset="0.328125"/><stop stop-opacity="1" stop-color="rgb(30.023193%, 33.970642%, 57.240295%)" offset="0.335938"/><stop stop-opacity="1" stop-color="rgb(29.777527%, 33.735657%, 56.987%)" offset="0.34375"/><stop stop-opacity="1" stop-color="rgb(29.533386%, 33.499146%, 56.733704%)" offset="0.351562"/><stop stop-opacity="1" stop-color="rgb(29.28772%, 33.26416%, 56.480408%)" offset="0.359375"/><stop stop-opacity="1" stop-color="rgb(29.042053%, 33.029175%, 56.227112%)" offset="0.367188"/><stop stop-opacity="1" stop-color="rgb(28.796387%, 32.792664%, 55.973816%)" offset="0.375"/><stop stop-opacity="1" stop-color="rgb(28.552246%, 32.557678%, 55.72052%)" offset="0.382813"/><stop stop-opacity="1" stop-color="rgb(28.30658%, 32.321167%, 55.467224%)" offset="0.390625"/><stop stop-opacity="1" stop-color="rgb(28.060913%, 32.086182%, 55.213928%)" offset="0.398438"/><stop stop-opacity="1" stop-color="rgb(27.815247%, 31.851196%, 54.960632%)" offset="0.40625"/><stop stop-opacity="1" stop-color="rgb(27.56958%, 31.614685%, 54.707336%)" offset="0.414063"/><stop stop-opacity="1" stop-color="rgb(27.325439%, 31.3797%, 54.454041%)" offset="0.416"/><stop stop-opacity="1" stop-color="rgb(27.203369%, 31.262207%, 54.327393%)" offset="0.421875"/><stop stop-opacity="1" stop-color="rgb(27.079773%, 31.143188%, 54.200745%)" offset="0.429688"/><stop stop-opacity="1" stop-color="rgb(26.834106%, 30.908203%, 53.947449%)" offset="0.4375"/><stop stop-opacity="1" stop-color="rgb(26.58844%, 30.671692%, 53.694153%)" offset="0.445312"/><stop stop-opacity="1" stop-color="rgb(26.344299%, 30.436707%, 53.440857%)" offset="0.453125"/><stop stop-opacity="1" stop-color="rgb(26.098633%, 30.201721%, 53.187561%)" offset="0.460938"/><stop stop-opacity="1" stop-color="rgb(25.852966%, 29.96521%, 52.934265%)" offset="0.46875"/><stop stop-opacity="1" stop-color="rgb(25.6073%, 29.730225%, 52.680969%)" offset="0.476562"/><stop stop-opacity="1" stop-color="rgb(25.363159%, 29.493713%, 52.427673%)" offset="0.484375"/><stop stop-opacity="1" stop-color="rgb(25.117493%, 29.258728%, 52.174377%)" offset="0.492188"/><stop stop-opacity="1" stop-color="rgb(24.871826%, 29.023743%, 51.921082%)" offset="0.5"/><stop stop-opacity="1" stop-color="rgb(24.62616%, 28.787231%, 51.667786%)" offset="0.507812"/><stop stop-opacity="1" stop-color="rgb(24.380493%, 28.552246%, 51.41449%)" offset="0.515625"/><stop stop-opacity="1" stop-color="rgb(24.136353%, 28.315735%, 51.161194%)" offset="0.523437"/><stop stop-opacity="1" stop-color="rgb(23.890686%, 28.08075%, 50.907898%)" offset="0.53125"/><stop stop-opacity="1" stop-color="rgb(23.64502%, 27.845764%, 50.654602%)" offset="0.539062"/><stop stop-opacity="1" stop-color="rgb(23.399353%, 27.609253%, 50.401306%)" offset="0.546875"/><stop stop-opacity="1" stop-color="rgb(23.155212%, 27.374268%, 50.14801%)" offset="0.554687"/><stop stop-opacity="1" stop-color="rgb(22.909546%, 27.137756%, 49.894714%)" offset="0.5625"/><stop stop-opacity="1" stop-color="rgb(22.663879%, 26.902771%, 49.641418%)" offset="0.570312"/><stop stop-opacity="1" stop-color="rgb(22.418213%, 26.66626%, 49.388123%)" offset="0.578125"/><stop stop-opacity="1" stop-color="rgb(22.172546%, 26.431274%, 49.134827%)" offset="0.584"/><stop stop-opacity="1" stop-color="rgb(22.050476%, 26.313782%, 49.009705%)" offset="0.585938"/><stop stop-opacity="1" stop-color="rgb(21.928406%, 26.196289%, 48.883057%)" offset="0.59375"/><stop stop-opacity="1" stop-color="rgb(21.682739%, 25.959778%, 48.629761%)" offset="0.601562"/><stop stop-opacity="1" stop-color="rgb(21.437073%, 25.724792%, 48.376465%)" offset="0.609375"/><stop stop-opacity="1" stop-color="rgb(21.191406%, 25.488281%, 48.123169%)" offset="0.617188"/><stop stop-opacity="1" stop-color="rgb(20.947266%, 25.253296%, 47.869873%)" offset="0.625"/><stop stop-opacity="1" stop-color="rgb(20.701599%, 25.018311%, 47.616577%)" offset="0.632812"/><stop stop-opacity="1" stop-color="rgb(20.455933%, 24.781799%, 47.363281%)" offset="0.640625"/><stop stop-opacity="1" stop-color="rgb(20.210266%, 24.546814%, 47.109985%)" offset="0.648438"/><stop stop-opacity="1" stop-color="rgb(19.9646%, 24.310303%, 46.856689%)" offset="0.65625"/><stop stop-opacity="1" stop-color="rgb(19.720459%, 24.075317%, 46.603394%)" offset="0.664062"/><stop stop-opacity="1" stop-color="rgb(19.474792%, 23.840332%, 46.350098%)" offset="0.671875"/><stop stop-opacity="1" stop-color="rgb(19.229126%, 23.603821%, 46.096802%)" offset="0.679688"/><stop stop-opacity="1" stop-color="rgb(18.983459%, 23.368835%, 45.843506%)" offset="0.6875"/><stop stop-opacity="1" stop-color="rgb(18.739319%, 23.132324%, 45.59021%)" offset="0.695312"/><stop stop-opacity="1" stop-color="rgb(18.493652%, 22.897339%, 45.336914%)" offset="0.703125"/><stop stop-opacity="1" stop-color="rgb(18.247986%, 22.660828%, 45.083618%)" offset="0.710938"/><stop stop-opacity="1" stop-color="rgb(18.002319%, 22.425842%, 44.830322%)" offset="0.71875"/><stop stop-opacity="1" stop-color="rgb(17.758179%, 22.190857%, 44.577026%)" offset="0.726562"/><stop stop-opacity="1" stop-color="rgb(17.512512%, 21.954346%, 44.32373%)" offset="0.734375"/><stop stop-opacity="1" stop-color="rgb(17.266846%, 21.71936%, 44.070435%)" offset="0.742188"/><stop stop-opacity="1" stop-color="rgb(17.021179%, 21.482849%, 43.817139%)" offset="0.75"/><stop stop-opacity="1" stop-color="rgb(16.775513%, 21.247864%, 43.563843%)" offset="0.757812"/><stop stop-opacity="1" stop-color="rgb(16.531372%, 21.012878%, 43.310547%)" offset="0.765625"/><stop stop-opacity="1" stop-color="rgb(16.285706%, 20.776367%, 43.057251%)" offset="0.773438"/><stop stop-opacity="1" stop-color="rgb(16.040039%, 20.541382%, 42.803955%)" offset="0.78125"/><stop stop-opacity="1" stop-color="rgb(15.794373%, 20.304871%, 42.550659%)" offset="0.789063"/><stop stop-opacity="1" stop-color="rgb(15.550232%, 20.069885%, 42.297363%)" offset="0.796875"/><stop stop-opacity="1" stop-color="rgb(15.304565%, 19.8349%, 42.044067%)" offset="0.804688"/><stop stop-opacity="1" stop-color="rgb(15.058899%, 19.598389%, 41.790771%)" offset="0.8125"/><stop stop-opacity="1" stop-color="rgb(14.813232%, 19.363403%, 41.537476%)" offset="0.820313"/><stop stop-opacity="1" stop-color="rgb(14.567566%, 19.126892%, 41.28418%)" offset="0.828125"/><stop stop-opacity="1" stop-color="rgb(14.323425%, 18.891907%, 41.030884%)" offset="0.835938"/><stop stop-opacity="1" stop-color="rgb(14.077759%, 18.655396%, 40.777588%)" offset="0.84375"/><stop stop-opacity="1" stop-color="rgb(13.832092%, 18.42041%, 40.524292%)" offset="0.851563"/><stop stop-opacity="1" stop-color="rgb(13.586426%, 18.185425%, 40.270996%)" offset="0.859375"/><stop stop-opacity="1" stop-color="rgb(13.342285%, 17.948914%, 40.0177%)" offset="0.867188"/><stop stop-opacity="1" stop-color="rgb(13.096619%, 17.713928%, 39.764404%)" offset="0.875"/><stop stop-opacity="1" stop-color="rgb(12.850952%, 17.477417%, 39.511108%)" offset="0.882812"/><stop stop-opacity="1" stop-color="rgb(12.605286%, 17.242432%, 39.257812%)" offset="0.890625"/><stop stop-opacity="1" stop-color="rgb(12.361145%, 17.007446%, 39.004517%)" offset="0.898438"/><stop stop-opacity="1" stop-color="rgb(12.115479%, 16.770935%, 38.751221%)" offset="0.90625"/><stop stop-opacity="1" stop-color="rgb(11.869812%, 16.53595%, 38.497925%)" offset="0.914062"/><stop stop-opacity="1" stop-color="rgb(11.624146%, 16.299438%, 38.244629%)" offset="0.921875"/><stop stop-opacity="1" stop-color="rgb(11.378479%, 16.064453%, 37.991333%)" offset="0.929688"/><stop stop-opacity="1" stop-color="rgb(11.134338%, 15.829468%, 37.738037%)" offset="0.9375"/><stop stop-opacity="1" stop-color="rgb(11.004639%, 15.705872%, 37.605286%)" offset="1"/></linearGradient><clipPath id="id4"><path d="M 181.804688 134.277344 L 205.054688 134.277344 L 205.054688 157.527344 L 181.804688 157.527344 Z M 181.804688 134.277344 " clip-rule="nonzero"/></clipPath><clipPath id="id5"><path d="M 90 121.613281 L 176.910156 121.613281 L 176.910156 225.863281 L 90 225.863281 Z M 90 121.613281 " clip-rule="nonzero"/></clipPath><clipPath id="id6"><path d="M 6.660156 121.613281 L 111 121.613281 L 111 225.863281 L 6.660156 225.863281 Z M 6.660156 121.613281 " clip-rule="nonzero"/></clipPath></defs><g clip-path="url(#id1)"><g clip-path="url(#id2)"><path fill="url(#id3)" d="M 181.871094 134.34375 L 181.871094 157.464844 L 204.988281 157.464844 L 204.988281 134.34375 Z M 181.871094 134.34375 " fill-rule="nonzero"/></g></g><g clip-path="url(#id4)"><path fill="#3e76cc" d="M 193.429688 157.527344 C 187.015625 157.527344 181.804688 152.316406 181.804688 145.902344 C 181.804688 139.492188 187.015625 134.277344 193.429688 134.277344 C 199.835938 134.277344 205.054688 139.492188 205.054688 145.902344 C 205.054688 152.316406 199.835938 157.527344 193.429688 157.527344 Z M 193.429688 134.410156 C 187.089844 134.410156 181.933594 139.566406 181.933594 145.902344 C 181.933594 152.242188 187.089844 157.398438 193.429688 157.398438 C 199.765625 157.398438 204.925781 152.242188 204.925781 145.902344 C 204.925781 139.566406 199.765625 134.410156 193.429688 134.410156 Z M 193.429688 134.410156 " fill-opacity="1" fill-rule="nonzero"/></g><g clip-path="url(#id5)"><path fill="#1c2860" d="M 136.4375 224.476562 C 149.597656 221.441406 160.871094 213.492188 168.105469 202.503906 C 173.742188 194.261719 176.925781 184.4375 176.925781 173.738281 C 176.925781 173.738281 176.925781 173.738281 176.925781 173.59375 C 176.925781 162.894531 173.601562 153.0625 168.105469 144.683594 C 158.847656 130.804688 142.941406 121.695312 124.867188 121.695312 C 120.816406 121.695312 117.058594 122.128906 113.296875 122.996094 C 104.472656 124.871094 96.667969 129.066406 90.160156 134.851562 L 90.160156 168.957031 L 102.3125 193.253906 C 108.886719 189.195312 113.296875 181.957031 113.296875 173.59375 L 113.296875 147.136719 C 116.769531 145.695312 120.671875 144.824219 124.867188 144.824219 C 140.773438 144.824219 153.785156 157.691406 153.785156 173.59375 C 153.785156 173.738281 153.785156 173.738281 153.785156 173.738281 C 153.785156 189.347656 141.351562 202.070312 125.878906 202.503906 L 113.300781 202.503906 C 111.253906 202.503906 109.273438 202.808594 107.359375 203.339844 L 118.542969 225.699219 C 122.90625 225.691406 126.042969 225.675781 126.167969 225.636719 C 129.640625 225.636719 133.113281 225.199219 136.4375 224.476562 Z M 136.4375 224.476562 " fill-opacity="1" fill-rule="nonzero"/></g><g clip-path="url(#id6)"><path fill="#1c2860" d="M 99.550781 203.339844 L 94.507812 193.253906 L 82.355469 168.957031 L 58.71875 121.695312 L 6.660156 225.78125 L 41.074219 225.78125 C 53.796875 225.78125 64.207031 215.375 64.207031 202.652344 L 44.691406 202.652344 L 58.71875 173.449219 L 79.828125 215.808594 C 80.640625 217.320312 81.761719 218.707031 83.117188 219.933594 C 86.613281 223.117188 91.65625 225.238281 96.878906 225.683594 C 97.554688 225.738281 98.238281 225.78125 98.914062 225.78125 L 110.773438 225.78125 L 110.730469 225.699219 Z M 99.550781 203.339844 " fill-opacity="1" fill-rule="nonzero"/></g><g fill="#1c2860" fill-opacity="1"><g transform="translate(177.564697, 224.867405)"><g><path d="M 4.027344 0 L 27.296875 0 L 27.296875 -57.980469 L 4.027344 -57.980469 Z M 4.027344 0 "/></g></g></g><g fill="#1c2860" fill-opacity="1"><g transform="translate(208.888498, 224.867405)"><g><path d="M 2.820312 0 L 23.753906 0 L 23.753906 -20.9375 C 23.753906 -25.527344 26.089844 -28.183594 30.035156 -28.183594 C 33.417969 -28.183594 35.433594 -25.929688 35.433594 -22.0625 L 35.433594 0 L 56.367188 0 L 56.367188 -20.9375 C 56.367188 -25.527344 58.625 -28.183594 62.570312 -28.183594 C 65.953125 -28.183594 67.964844 -25.929688 67.964844 -22.0625 L 67.964844 0 L 88.902344 0 L 88.902344 -26.171875 C 88.902344 -36.558594 83.183594 -42.921875 73.519531 -42.921875 C 65.46875 -42.921875 58.785156 -38.652344 55.644531 -31.566406 L 55.5625 -31.566406 C 53.710938 -38.8125 48.558594 -42.921875 40.585938 -42.921875 C 32.613281 -42.921875 25.847656 -38.492188 22.949219 -31.484375 L 22.871094 -31.484375 L 19.730469 -41.875 L 2.820312 -41.875 Z M 2.820312 0 "/></g></g></g><g fill="#1c2860" fill-opacity="1"><g transform="translate(300.202609, 224.867405)"><g><path d="M 18.441406 1.046875 C 27.539062 1.046875 34.707031 -2.820312 37.765625 -8.617188 L 37.847656 -8.617188 L 38.007812 -7.890625 C 38.976562 -2.65625 45.015625 1.046875 53.226562 1.046875 C 58.945312 1.046875 64.582031 -0.242188 67.882812 -2.65625 L 64.984375 -12.160156 C 63.777344 -11.433594 62.246094 -10.953125 61.121094 -10.953125 C 59.1875 -10.953125 58.140625 -12.160156 58.140625 -14.09375 L 58.140625 -25.847656 C 58.140625 -36.800781 47.996094 -43.324219 30.921875 -43.324219 C 17.714844 -43.324219 7.007812 -38.652344 2.09375 -30.761719 L 13.929688 -24.15625 C 18.84375 -28.425781 25.285156 -31.003906 31.40625 -31.003906 C 35.191406 -31.003906 37.527344 -29.957031 37.527344 -28.265625 C 37.527344 -27.21875 36.398438 -26.414062 34.789062 -26.25 L 24.5625 -25.203125 C 9.984375 -23.835938 1.207031 -18.359375 1.207031 -10.308594 C 1.207031 -3.300781 7.972656 1.046875 18.441406 1.046875 Z M 27.136719 -11.355469 C 24.15625 -11.355469 22.226562 -12.320312 22.226562 -13.691406 C 22.226562 -15.140625 24.15625 -16.265625 28.105469 -16.589844 L 37.285156 -17.394531 L 37.285156 -17.152344 C 37.285156 -13.691406 33.417969 -11.355469 27.136719 -11.355469 Z M 27.136719 -11.355469 "/></g></g></g><g fill="#1c2860" fill-opacity="1"><g transform="translate(5.333413, 250.224226)"><g><path d="M 1.300781 0 L 12.609375 0 C 19.625 0 23.527344 -3.351562 23.527344 -9.359375 C 23.527344 -15.363281 19.625 -18.714844 12.609375 -18.714844 L 1.300781 -18.714844 Z M 8.578125 -5.328125 L 8.578125 -13.386719 L 11.957031 -13.386719 C 14.636719 -13.386719 16.117188 -11.957031 16.117188 -9.359375 C 16.117188 -6.785156 14.636719 -5.328125 11.957031 -5.328125 Z M 8.578125 -5.328125 "/></g></g></g><g fill="#1c2860" fill-opacity="1"><g transform="translate(34.368156, 250.224226)"><g><path d="M 4.289062 -14.558594 C 6.445312 -14.558594 7.929688 -15.910156 7.929688 -17.882812 C 7.929688 -19.835938 6.445312 -21.1875 4.289062 -21.1875 C 2.15625 -21.1875 0.648438 -19.835938 0.648438 -17.882812 C 0.648438 -15.910156 2.15625 -14.558594 4.289062 -14.558594 Z M 0.910156 0 L 7.667969 0 L 7.667969 -13.515625 L 0.910156 -13.515625 Z M 0.910156 0 "/></g></g></g><g fill="#1c2860" fill-opacity="1"><g transform="translate(47.729588, 250.224226)"><g><path d="M 7.875 5.925781 C 14.792969 5.925781 19.132812 2.859375 19.132812 -2.027344 L 19.132812 -13.542969 L 13.414062 -13.542969 L 12.398438 -10.242188 L 12.375 -10.242188 C 11.59375 -12.453125 9.382812 -13.855469 6.785156 -13.855469 C 2.886719 -13.855469 0.414062 -11.230469 0.414062 -7.019531 C 0.414062 -2.859375 2.859375 -0.261719 6.734375 -0.261719 C 9.203125 -0.261719 11.386719 -1.195312 12.347656 -2.652344 L 12.375 -2.652344 L 12.375 -2.078125 C 12.375 -0.128906 10.449219 1.117188 7.382812 1.117188 C 5.355469 1.117188 3.121094 0.546875 1.585938 -0.339844 L -0.15625 4.394531 C 1.558594 5.328125 4.652344 5.925781 7.875 5.925781 Z M 9.902344 -4.550781 C 8.242188 -4.550781 7.175781 -5.457031 7.175781 -6.890625 C 7.175781 -8.320312 8.242188 -9.226562 9.902344 -9.226562 C 11.59375 -9.226562 12.632812 -8.320312 12.632812 -6.890625 C 12.632812 -5.457031 11.59375 -4.550781 9.902344 -4.550781 Z M 9.902344 -4.550781 "/></g></g></g><g fill="#1c2860" fill-opacity="1"><g transform="translate(72.553589, 250.224226)"><g><path d="M 4.289062 -14.558594 C 6.445312 -14.558594 7.929688 -15.910156 7.929688 -17.882812 C 7.929688 -19.835938 6.445312 -21.1875 4.289062 -21.1875 C 2.15625 -21.1875 0.648438 -19.835938 0.648438 -17.882812 C 0.648438 -15.910156 2.15625 -14.558594 4.289062 -14.558594 Z M 0.910156 0 L 7.667969 0 L 7.667969 -13.515625 L 0.910156 -13.515625 Z M 0.910156 0 "/></g></g></g><g fill="#1c2860" fill-opacity="1"><g transform="translate(85.915024, 250.224226)"><g><path d="M 9.902344 0.46875 C 12.453125 0.46875 14.53125 -0.0273438 16.558594 -1.222656 L 15.621094 -5.5625 C 14.246094 -4.707031 13.335938 -4.367188 11.90625 -4.367188 C 10.578125 -4.367188 9.773438 -5.070312 9.773438 -6.472656 L 9.75 -9.097656 L 16.144531 -9.097656 L 16.144531 -13.515625 L 9.75 -13.515625 L 9.773438 -18.195312 L 3.015625 -16.898438 L 3.015625 -13.515625 L 0.261719 -13.515625 L 0.261719 -9.097656 L 2.988281 -9.097656 L 3.015625 -5.042969 C 3.042969 -1.636719 5.640625 0.46875 9.902344 0.46875 Z M 9.902344 0.46875 "/></g></g></g><g fill="#1c2860" fill-opacity="1"><g transform="translate(107.645956, 250.224226)"><g><path d="M 5.953125 0.339844 C 8.890625 0.339844 11.203125 -0.910156 12.191406 -2.78125 L 12.21875 -2.78125 L 12.269531 -2.546875 C 12.582031 -0.859375 14.53125 0.339844 17.183594 0.339844 C 19.027344 0.339844 20.847656 -0.078125 21.914062 -0.859375 L 20.976562 -3.925781 C 20.589844 -3.691406 20.09375 -3.535156 19.730469 -3.535156 C 19.105469 -3.535156 18.769531 -3.925781 18.769531 -4.550781 L 18.769531 -8.34375 C 18.769531 -11.878906 15.492188 -13.984375 9.980469 -13.984375 C 5.71875 -13.984375 2.261719 -12.476562 0.675781 -9.929688 L 4.496094 -7.796875 C 6.082031 -9.175781 8.164062 -10.007812 10.136719 -10.007812 C 11.359375 -10.007812 12.113281 -9.671875 12.113281 -9.125 C 12.113281 -8.785156 11.75 -8.527344 11.230469 -8.472656 L 7.929688 -8.136719 C 3.222656 -7.695312 0.390625 -5.925781 0.390625 -3.328125 C 0.390625 -1.066406 2.574219 0.339844 5.953125 0.339844 Z M 8.761719 -3.664062 C 7.796875 -3.664062 7.175781 -3.976562 7.175781 -4.417969 C 7.175781 -4.886719 7.796875 -5.25 9.070312 -5.355469 L 12.035156 -5.613281 L 12.035156 -5.535156 C 12.035156 -4.417969 10.789062 -3.664062 8.761719 -3.664062 Z M 8.761719 -3.664062 "/></g></g></g><g fill="#1c2860" fill-opacity="1"><g transform="translate(134.419373, 250.224226)"><g><path d="M 0.910156 0 L 7.667969 0 L 7.667969 -19.496094 L 0.910156 -19.496094 Z M 0.910156 0 "/></g></g></g><g fill="#1c2860" fill-opacity="1"><g transform="translate(147.780807, 250.224226)"><g/></g></g><g fill="#1c2860" fill-opacity="1"><g transform="translate(157.503341, 250.224226)"><g><path d="M 1.300781 0 L 8.1875 0 L 8.1875 -10.503906 L 8.242188 -10.503906 L 12.867188 0 L 18.714844 0 L 23.214844 -10.503906 L 23.265625 -10.503906 L 23.265625 0 L 30.152344 0 L 30.152344 -18.714844 L 20.613281 -18.714844 L 15.753906 -7.460938 L 15.699219 -7.460938 L 10.8125 -18.714844 L 1.300781 -18.714844 Z M 1.300781 0 "/></g></g></g><g fill="#1c2860" fill-opacity="1"><g transform="translate(193.737931, 250.224226)"><g><path d="M 5.953125 0.339844 C 8.890625 0.339844 11.203125 -0.910156 12.191406 -2.78125 L 12.21875 -2.78125 L 12.269531 -2.546875 C 12.582031 -0.859375 14.53125 0.339844 17.183594 0.339844 C 19.027344 0.339844 20.847656 -0.078125 21.914062 -0.859375 L 20.976562 -3.925781 C 20.589844 -3.691406 20.09375 -3.535156 19.730469 -3.535156 C 19.105469 -3.535156 18.769531 -3.925781 18.769531 -4.550781 L 18.769531 -8.34375 C 18.769531 -11.878906 15.492188 -13.984375 9.980469 -13.984375 C 5.71875 -13.984375 2.261719 -12.476562 0.675781 -9.929688 L 4.496094 -7.796875 C 6.082031 -9.175781 8.164062 -10.007812 10.136719 -10.007812 C 11.359375 -10.007812 12.113281 -9.671875 12.113281 -9.125 C 12.113281 -8.785156 11.75 -8.527344 11.230469 -8.472656 L 7.929688 -8.136719 C 3.222656 -7.695312 0.390625 -5.925781 0.390625 -3.328125 C 0.390625 -1.066406 2.574219 0.339844 5.953125 0.339844 Z M 8.761719 -3.664062 C 7.796875 -3.664062 7.175781 -3.976562 7.175781 -4.417969 C 7.175781 -4.886719 7.796875 -5.25 9.070312 -5.355469 L 12.035156 -5.613281 L 12.035156 -5.535156 C 12.035156 -4.417969 10.789062 -3.664062 8.761719 -3.664062 Z M 8.761719 -3.664062 "/></g></g></g><g fill="#1c2860" fill-opacity="1"><g transform="translate(220.511347, 250.224226)"><g><path d="M 12.140625 -13.855469 C 10.113281 -13.855469 8.265625 -12.6875 7.410156 -10.734375 L 7.382812 -10.734375 L 6.367188 -13.515625 L 0.910156 -13.515625 L 0.910156 0 L 7.667969 0 L 7.667969 -6.785156 C 7.667969 -8.527344 8.320312 -9.617188 9.359375 -9.617188 C 10.320312 -9.617188 10.945312 -8.527344 10.996094 -6.8125 L 16.949219 -8.058594 C 16.714844 -11.621094 14.84375 -13.855469 12.140625 -13.855469 Z M 12.140625 -13.855469 "/></g></g></g><g fill="#1c2860" fill-opacity="1"><g transform="translate(242.450219, 250.224226)"><g><path d="M 0.910156 0 L 7.667969 0 L 7.667969 -3.847656 L 8.863281 -4.964844 L 11.59375 0 L 19.003906 0 L 13.414062 -8.5 L 18.949219 -13.515625 L 11.179688 -13.515625 L 7.695312 -10.058594 L 7.667969 -10.058594 L 7.667969 -19.496094 L 0.910156 -19.496094 Z M 0.910156 0 "/></g></g></g><g fill="#1c2860" fill-opacity="1"><g transform="translate(266.234519, 250.224226)"><g><path d="M 10.945312 0.46875 C 14.089844 0.46875 17.027344 -0.339844 18.558594 -1.507812 L 16.246094 -4.628906 C 15.15625 -4.003906 13.207031 -3.585938 11.332031 -3.585938 C 9.539062 -3.585938 7.953125 -4.003906 7.460938 -5.199219 L 18.507812 -5.199219 C 18.691406 -5.746094 18.792969 -6.472656 18.792969 -7.070312 C 18.792969 -11.28125 15.285156 -13.984375 9.851562 -13.984375 C 4.238281 -13.984375 0.441406 -11.074219 0.46875 -6.757812 C 0.46875 -2.339844 4.652344 0.46875 10.945312 0.46875 Z M 7.355469 -8.058594 C 7.511719 -9.304688 8.5 -10.136719 9.824219 -10.136719 C 11.101562 -10.136719 12.035156 -9.28125 12.035156 -8.058594 Z M 7.355469 -8.058594 "/></g></g></g><g fill="#1c2860" fill-opacity="1"><g transform="translate(290.356717, 250.224226)"><g><path d="M 9.902344 0.46875 C 12.453125 0.46875 14.53125 -0.0273438 16.558594 -1.222656 L 15.621094 -5.5625 C 14.246094 -4.707031 13.335938 -4.367188 11.90625 -4.367188 C 10.578125 -4.367188 9.773438 -5.070312 9.773438 -6.472656 L 9.75 -9.097656 L 16.144531 -9.097656 L 16.144531 -13.515625 L 9.75 -13.515625 L 9.773438 -18.195312 L 3.015625 -16.898438 L 3.015625 -13.515625 L 0.261719 -13.515625 L 0.261719 -9.097656 L 2.988281 -9.097656 L 3.015625 -5.042969 C 3.042969 -1.636719 5.640625 0.46875 9.902344 0.46875 Z M 9.902344 0.46875 "/></g></g></g><g fill="#1c2860" fill-opacity="1"><g transform="translate(312.08765, 250.224226)"><g><path d="M 4.289062 -14.558594 C 6.445312 -14.558594 7.929688 -15.910156 7.929688 -17.882812 C 7.929688 -19.835938 6.445312 -21.1875 4.289062 -21.1875 C 2.15625 -21.1875 0.648438 -19.835938 0.648438 -17.882812 C 0.648438 -15.910156 2.15625 -14.558594 4.289062 -14.558594 Z M 0.910156 0 L 7.667969 0 L 7.667969 -13.515625 L 0.910156 -13.515625 Z M 0.910156 0 "/></g></g></g><g fill="#1c2860" fill-opacity="1"><g transform="translate(325.449084, 250.224226)"><g><path d="M 13.285156 -13.855469 C 10.632812 -13.855469 8.578125 -12.503906 7.539062 -10.347656 L 7.511719 -10.347656 L 6.628906 -13.515625 L 0.910156 -13.515625 L 0.910156 0 L 7.667969 0 L 7.667969 -6.890625 C 7.667969 -8.449219 8.527344 -9.359375 9.902344 -9.359375 C 11.152344 -9.359375 11.855469 -8.605469 11.855469 -7.332031 L 11.855469 0 L 18.585938 0 L 18.613281 -8.839844 C 18.613281 -11.933594 16.558594 -13.855469 13.285156 -13.855469 Z M 13.285156 -13.855469 "/></g></g></g><g fill="#1c2860" fill-opacity="1"><g transform="translate(349.623285, 250.224226)"><g><path d="M 7.875 5.925781 C 14.792969 5.925781 19.132812 2.859375 19.132812 -2.027344 L 19.132812 -13.542969 L 13.414062 -13.542969 L 12.398438 -10.242188 L 12.375 -10.242188 C 11.59375 -12.453125 9.382812 -13.855469 6.785156 -13.855469 C 2.886719 -13.855469 0.414062 -11.230469 0.414062 -7.019531 C 0.414062 -2.859375 2.859375 -0.261719 6.734375 -0.261719 C 9.203125 -0.261719 11.386719 -1.195312 12.347656 -2.652344 L 12.375 -2.652344 L 12.375 -2.078125 C 12.375 -0.128906 10.449219 1.117188 7.382812 1.117188 C 5.355469 1.117188 3.121094 0.546875 1.585938 -0.339844 L -0.15625 4.394531 C 1.558594 5.328125 4.652344 5.925781 7.875 5.925781 Z M 9.902344 -4.550781 C 8.242188 -4.550781 7.175781 -5.457031 7.175781 -6.890625 C 7.175781 -8.320312 8.242188 -9.226562 9.902344 -9.226562 C 11.59375 -9.226562 12.632812 -8.320312 12.632812 -6.890625 C 12.632812 -5.457031 11.59375 -4.550781 9.902344 -4.550781 Z M 9.902344 -4.550781 "/></g></g></g></svg>